<?xml version="1.0" encoding="UTF-8" standalone="no"?><!DOCTYPE svg PUBLIC "-//W3C//DTD SVG 1.1//EN" "http://www.w3.org/Graphics/SVG/1.1/DTD/svg11.dtd"><svg width="100%" height="100%" viewBox="0 0 500 500" version="1.1" xmlns="http://www.w3.org/2000/svg" xmlns:xlink="http://www.w3.org/1999/xlink" xml:space="preserve" xmlns:serif="http://www.serif.com/" style="fill-rule:evenodd;clip-rule:evenodd;stroke-linejoin:round;stroke-miterlimit:2;"><rect id="Head-only-round" serif:id="Head only round" x="0" y="0" width="500" height="500" style="fill:none;"/><clipPath id="_clip1"><rect x="0" y="0" width="500" height="500"/></clipPath><g clip-path="url(#_clip1)"><rect id="Artboard1" x="0" y="-0" width="500" height="500" style="fill:none;"/><path d="M500,250c-0,138.071 -111.929,250 -250,250c-138.071,-0 -250,-111.929 -250,-250c-0,-138.071 111.929,-250 250,-250c138.071,-0 250,111.929 250,250" style="fill:#ff171d;fill-rule:nonzero;"/><path d="M296.479,355.104c0.474,0.868 -0.597,2.472 -3.002,4.66c-1.203,1.088 -2.725,2.342 -4.572,3.682c-1.902,1.247 -4.117,2.601 -6.612,4.038c-1.231,0.752 -2.593,1.407 -4.031,2.061c-1.443,0.655 -2.943,1.337 -4.496,2.038c-1.54,0.747 -3.256,1.252 -4.988,1.86c-1.748,0.566 -3.525,1.232 -5.417,1.725c-7.545,2.007 -16.352,3.143 -25.594,2.4c-9.231,-0.756 -17.824,-3.295 -24.875,-6.679c-1.798,-0.787 -3.425,-1.761 -5.057,-2.615c-0.804,-0.441 -1.597,-0.878 -2.377,-1.309c-0.743,-0.477 -1.475,-0.949 -2.196,-1.413c-1.43,-0.934 -2.814,-1.832 -4.106,-2.734c-1.241,-0.959 -2.434,-1.882 -3.573,-2.759c-8.916,-7.233 -13.092,-13.002 -11.951,-14.503c1.236,-1.648 7.644,1.281 17.338,5.927c9.707,4.543 22.842,10.708 37.98,11.81c7.553,0.599 14.859,0.065 21.566,-1.013c1.675,-0.256 3.298,-0.679 4.895,-0.974c1.591,-0.339 3.164,-0.549 4.646,-1.004c1.502,-0.387 2.953,-0.755 4.349,-1.111c1.408,-0.333 2.768,-0.655 4.038,-1.076c2.565,-0.766 4.926,-1.407 7.044,-1.912c2.08,-0.604 3.903,-1.099 5.453,-1.404c3.095,-0.617 5.064,-0.563 5.538,0.305" style="fill-rule:nonzero;"/><path d="M183.632,335.573c-0.245,0.608 -2.436,0.37 -5.729,-0.616c-1.615,-0.455 -3.627,-1.238 -5.446,-1.686c-0.452,-0.12 -0.823,-0.125 -0.992,-0.106c-0.153,0.045 -0.024,0.017 -0.14,0.12c-0.217,0.217 -0.549,0.965 -0.67,1.965c-0.219,2.056 0.041,4.389 0.39,6.457c0.353,2.085 0.773,3.991 1.144,5.602c0.735,3.224 1.202,5.316 0.592,5.625c-0.562,0.288 -2.13,-1.312 -3.758,-4.455c-0.815,-1.568 -1.624,-3.521 -2.27,-5.809c-0.625,-2.295 -1.152,-4.906 -0.836,-8.019c0.227,-1.536 0.673,-3.361 2.269,-4.835c0.771,-0.74 2.083,-1.238 3.106,-1.208c1.001,0.007 1.776,0.22 2.394,0.437c2.456,0.92 4.073,1.957 5.578,2.821c2.911,1.764 4.616,3.091 4.368,3.707" style="fill-rule:nonzero;"/><path d="M308.198,358.153c-0.599,-0.329 -0.215,-2.092 0.427,-4.653c0.297,-1.268 0.667,-2.787 0.71,-4.214c0.019,-0.703 -0.061,-1.368 -0.257,-1.767c-0.198,-0.398 -0.401,-0.611 -0.906,-0.892c-1.07,-0.542 -2.948,-0.681 -4.578,-0.664c-1.669,0.006 -3.254,0.122 -4.603,0.183c-2.706,0.139 -4.508,0.057 -4.682,-0.591c-0.168,-0.623 1.3,-1.691 3.986,-2.711c1.347,-0.502 2.997,-0.995 4.967,-1.27c1.96,-0.21 4.276,-0.48 7.057,0.787c1.379,0.658 2.665,2.045 3.141,3.521c0.505,1.47 0.417,2.776 0.25,3.875c-0.394,2.201 -1.224,3.784 -1.976,5.055c-1.559,2.5 -2.984,3.646 -3.536,3.341" style="fill-rule:nonzero;"/><path d="M183.196,435.399c-1.265,0.367 -2.923,-1.284 -4.594,-4.319c-0.814,-1.519 -1.73,-3.361 -2.361,-5.5c-0.338,-1.066 -0.661,-2.195 -0.965,-3.368c-0.142,-0.592 -0.288,-1.193 -0.436,-1.801l-0.205,-0.925c-0.069,-0.295 -0.14,-0.719 -0.128,-0.658c-1.009,-6.283 -1.889,-12.604 -2.281,-18.937c-0.009,-0.103 -0.009,-0.207 0.001,-0.309c0,-0.051 0.009,0.007 0.004,-0.136l-0.019,-0.465l-0.026,-0.912c-0.026,-1.21 0.034,-2.369 0.094,-3.479c0.123,-2.224 0.407,-4.198 0.789,-5.859c0.754,-3.309 1.863,-5.33 3.183,-5.415c1.314,-0.085 2.593,1.943 3.566,5.191c0.482,1.618 0.896,3.547 1.25,5.656c0.179,1.057 0.304,2.174 0.455,3.32l0.107,0.868l0.049,0.437c0.015,0.139 0.015,0.082 0.024,0.129c0.023,0.095 0.038,0.194 0.047,0.291c0.372,6.051 1.214,12.021 2.163,17.976c-0.012,-0.057 0.051,0.342 0.11,0.623l0.159,0.879c0.094,0.587 0.186,1.163 0.276,1.729c0.165,1.139 0.294,2.241 0.384,3.302c0.134,2.134 0.347,4.043 0.309,5.712c-0.038,3.323 -0.687,5.604 -1.955,5.97" style="fill:#fff;fill-rule:nonzero;"/><path d="M164.099,418.038c-1.281,0.306 -2.938,-1.377 -4.566,-4.305c-0.799,-1.469 -1.658,-3.236 -2.46,-5.233c-0.396,-0.99 -0.792,-2.059 -1.182,-3.191c-0.186,-0.566 -0.374,-1.139 -0.565,-1.722l-0.269,-0.906l-0.168,-0.631c-0.634,-2.309 -1.163,-4.814 -1.521,-7.283c-0.005,-0.041 -0.002,-0.081 0.01,-0.123c0,-0.04 0.014,0.052 0.002,-0.101l-0.04,-0.486l-0.069,-0.958c-0.096,-1.276 -0.13,-2.493 -0.056,-3.608c0.104,-2.262 0.313,-4.297 0.721,-5.955c0.767,-3.347 1.901,-5.404 3.219,-5.428c1.319,-0.025 2.572,1.97 3.531,5.18c0.453,1.625 0.937,3.483 1.304,5.556c0.161,1.05 0.371,2.099 0.571,3.166l0.137,0.815l0.064,0.413c0.019,0.128 0.016,0.05 0.024,0.085c0.02,0.029 0.032,0.064 0.035,0.097c0.304,2.073 0.717,4.063 1.297,6.182c0.267,1.089 0.526,2.146 0.778,3.174c0.259,1.135 0.477,2.262 0.653,3.363c0.352,2.184 0.55,4.182 0.52,5.901c-0.024,3.437 -0.687,5.693 -1.97,5.998" style="fill:#fff;fill-rule:nonzero;"/><path d="M140.661,388.958c-1.3,0.221 -2.814,-1.583 -4.213,-4.675c-0.698,-1.55 -1.373,-3.415 -1.965,-5.521c-0.296,-1.054 -0.575,-2.167 -0.83,-3.323c-0.118,-0.58 -0.242,-1.17 -0.365,-1.771c-0.094,-0.524 -0.191,-1.057 -0.288,-1.597c-1.814,-11.328 -3.571,-22.687 -4.564,-34.331c-0.016,-0.19 -0.025,-0.381 -0.025,-0.566c-0.02,-0.533 -0.041,-1.056 -0.062,-1.566c-0.064,-1.198 0.012,-2.398 0.083,-3.525c0.181,-2.264 0.367,-4.262 0.854,-5.984c0.983,-3.451 2.252,-5.408 3.563,-5.285c1.312,0.124 2.439,2.219 3.189,5.325c0.377,1.554 0.887,3.463 1.182,5.531c0.226,1.637 0.474,3.422 0.733,5.297c0.946,11.118 2.672,22.352 4.472,33.573c0.08,0.538 0.16,1.071 0.238,1.597c0.075,0.603 0.148,1.196 0.221,1.783c0.128,1.17 0.22,2.306 0.277,3.391c0.113,2.173 0.101,4.161 -0.053,5.849c-0.306,3.376 -1.144,5.578 -2.447,5.798" style="fill:#fff;fill-rule:nonzero;"/><path d="M200.991,442.778c-0.619,0.224 -1.356,-0.058 -2.173,-0.825c-0.408,-0.382 -0.844,-0.89 -1.276,-1.505c-0.394,-0.59 -0.794,-1.285 -1.19,-2.064c-0.822,-1.577 -1.512,-3.462 -2.17,-5.599c-0.335,-1.071 -0.597,-2.195 -0.866,-3.367c-0.123,-0.59 -0.248,-1.187 -0.377,-1.791l-0.168,-0.922c-0.051,-0.295 -0.118,-0.733 -0.099,-0.601l-0.037,-0.246c0,-0 0.007,-0.004 0.025,-0.007c-0.002,-0.032 0.017,0.067 0.001,-0.071l-0.052,-0.459l-0.095,-0.901c-0.111,-1.194 -0.208,-2.347 -0.231,-3.455c-0.057,-2.215 0.01,-4.215 0.257,-5.93c0.434,-3.405 1.517,-5.627 2.809,-5.677c1.345,-0.058 2.627,1.776 3.896,4.883c0.604,1.542 1.224,3.407 1.75,5.493c0.257,1.044 0.536,2.139 0.767,3.278l0.174,0.865l0.085,0.437c0.024,0.136 0.015,0.038 0.022,0.068l0.026,-0l0.037,0.241c0.071,0.499 0.141,0.993 0.21,1.481c0.076,0.594 0.151,1.177 0.224,1.757c0.137,1.149 0.21,2.283 0.297,3.34c0.165,2.12 0.156,4.084 0.104,5.7c-0.038,0.818 -0.111,1.573 -0.219,2.255c-0.085,0.641 -0.196,1.207 -0.35,1.709c-0.308,0.994 -0.759,1.689 -1.381,1.913" style="fill:#fff;fill-rule:nonzero;"/><path d="M219.655,446.25c-2.537,0.715 -4.882,-0.01 -5.23,-1.625c0,-0 -0.06,-0.285 -0.166,-0.783c-0.099,-0.488 -0.282,-1.231 -0.396,-2.014c-0.266,-1.604 -0.62,-3.743 -0.974,-5.884c-0.333,-2.095 -0.667,-4.194 -0.917,-5.767l-0.449,-2.543c-0.25,-1.42 1.642,-2.993 4.225,-3.519c2.587,-0.526 4.9,0.284 5.17,1.814c0,-0 0.191,1.081 0.478,2.706l0.923,5.818c0.342,2.071 0.686,4.141 0.943,5.693c0.118,0.8 0.264,1.354 0.349,1.778c0.09,0.416 0.141,0.654 0.141,0.654c0.279,1.309 -1.558,2.953 -4.097,3.672" style="fill:#fff;fill-rule:nonzero;"/><path d="M234.411,447.118c-2.524,-0.793 -4.369,-2.156 -4.171,-3.665c-0,0 0.159,-1.075 0.328,-2.788c0.175,-1.698 0.338,-4.024 0.446,-6.34c0.109,-2.32 0.149,-4.632 0.13,-6.325c-0.026,-1.691 -0.102,-2.719 -0.102,-2.719c-0.03,-0.349 0.067,-0.658 0.281,-0.986c0.21,-0.316 0.512,-0.496 0.911,-0.788l0.309,-0.207c0.11,-0.026 0.224,-0.057 0.344,-0.097c0.236,-0.085 0.486,-0.201 0.745,-0.337c0.519,-0.267 1.059,-0.626 1.648,-0.922c0.588,-0.295 1.184,-0.491 1.8,-0.468c0.307,0.01 0.618,0.074 0.923,0.201c0.153,0.061 0.306,0.139 0.454,0.231c0.13,0.05 0.257,0.111 0.378,0.182c0.483,0.252 0.934,0.716 1.219,1.125c0.283,0.401 0.474,0.889 0.51,1.377c0,0 0.101,1.37 0.129,3.286c0.021,1.91 -0.023,4.405 -0.139,6.888c-0.117,2.484 -0.29,4.956 -0.485,6.838c-0.182,1.879 -0.375,3.181 -0.375,3.181c-0.23,1.835 -2.757,3.123 -5.283,2.333" style="fill:#fff;fill-rule:nonzero;"/><path d="M231.373,405.885c-1.291,-0.263 -2.423,-0.8 -3.225,-1.349c-0.804,-0.567 -1.245,-1.078 -1.219,-1.855c-0,-0 0.014,-0.261 0.04,-0.712c0.028,-0.452 0.074,-1.089 0.081,-1.915c0.051,-1.615 0.056,-3.82 0.03,-6.033c-0.047,-4.448 -0.294,-8.877 -0.294,-8.877c-0.085,-1.526 1.957,-2.913 4.587,-3.13c2.629,-0.217 4.856,0.967 4.95,2.618c-0.002,-0 0.257,4.628 0.304,9.257c0.028,2.323 0.022,4.654 -0.033,6.443c-0.007,0.871 -0.059,1.651 -0.092,2.191c-0.032,0.538 -0.051,0.843 -0.051,0.843c-0.022,0.818 -0.696,1.726 -1.63,2.195c-0.937,0.484 -2.154,0.585 -3.448,0.324" style="fill:#fff;fill-rule:nonzero;"/><path d="M252.207,447.552c-2.249,-1.404 -3.806,-2.974 -3.349,-4.371c-0,-0 0.35,-0.976 0.788,-2.594c0.441,-1.604 0.962,-3.811 1.354,-6.028c0.396,-2.212 0.675,-4.429 0.752,-6.002c0.092,-1.587 0.029,-2.503 0.029,-2.503c0.002,-0.353 0.096,-0.617 0.306,-0.898c0.21,-0.279 0.545,-0.587 0.915,-0.811c0.771,-0.491 1.856,-1.135 3.111,-1.533c1.257,-0.397 2.495,-0.376 3.512,0.211c0.524,0.309 0.903,0.661 1.2,1.105c0.297,0.448 0.491,0.98 0.494,1.474c0,-0.003 0.087,1.493 -0.034,3.511c-0.104,2.035 -0.434,4.597 -0.884,7.123c-0.45,2.524 -1.031,5.005 -1.547,6.88c-0.507,1.872 -0.965,3.165 -0.965,3.165c-0.577,1.82 -3.429,2.676 -5.682,1.271" style="fill:#fff;fill-rule:nonzero;"/><path d="M250.036,405.451c-2.574,-0.562 -4.515,-2.081 -4.326,-3.394c0,0 0.137,-0.946 0.346,-2.366c0.267,-1.384 0.359,-3.411 0.512,-5.399c0.168,-1.983 0.279,-3.988 0.305,-5.504c0.052,-1.512 0.087,-2.519 0.087,-2.519c0.035,-1.391 2.172,-2.505 4.813,-2.519c2.635,-0.014 4.77,1.217 4.734,2.726c-0,-0 -0.037,1.062 -0.09,2.652c-0.03,1.587 -0.148,3.712 -0.325,5.853c-0.167,2.135 -0.262,4.245 -0.564,5.92c-0.242,1.648 -0.403,2.747 -0.403,2.747c-0.231,1.555 -2.51,2.366 -5.089,1.803" style="fill:#fff;fill-rule:nonzero;"/><path d="M273.04,443.212c-2.49,-0.872 -4.094,-2.707 -3.585,-4.096c-0,0 0.351,-0.942 0.878,-2.361c0.233,-0.668 0.502,-1.444 0.794,-2.278c0.196,-0.786 0.529,-1.645 0.656,-2.461c0.184,-0.822 0.344,-1.648 0.398,-2.445c0.116,-0.781 0.151,-1.54 0.145,-2.212c0.009,-0.661 0.044,-1.203 0.026,-1.6c-0.022,-0.403 -0.036,-0.634 -0.036,-0.634c-0.071,-1.264 2.005,-2.495 4.63,-2.747c2.629,-0.253 4.83,0.825 4.913,2.412c0,-0 0.014,0.278 0.04,0.766c0.019,0.491 -0.014,1.224 -0.027,2.085c-0,0.861 -0.049,1.875 -0.202,2.991c-0.09,1.113 -0.304,2.281 -0.564,3.451c-0.212,1.191 -0.606,2.252 -0.887,3.309c-0.337,0.971 -0.651,1.877 -0.92,2.65c-0.539,1.444 -0.896,2.408 -0.896,2.408c-0.472,1.291 -2.87,1.63 -5.363,0.762" style="fill:#fff;fill-rule:nonzero;"/><path d="M307.766,390.694c1.317,-0.003 2.491,2.035 3.323,5.375c0.451,1.645 0.658,3.716 0.786,6.006c0.024,0.576 0.061,1.156 0.056,1.765c-0.047,0.632 -0.096,1.273 -0.145,1.924c-0.067,0.654 -0.137,1.318 -0.208,1.989l-0.128,1.018c-0.065,0.33 -0.2,0.804 -0.17,0.705l-0.926,3.401c-0.288,1.149 -0.826,2.144 -1.234,3.218c-0.832,2.195 -1.905,3.999 -2.9,5.931c-0.033,0.064 -0.074,0.122 -0.119,0.175c-0.026,0.039 0.007,-0.033 -0.068,0.099l-0.238,0.414c-0.158,0.281 -0.321,0.539 -0.488,0.786c-0.659,1.009 -1.323,1.96 -1.982,2.852c-1.32,1.797 -2.618,3.294 -3.83,4.476c-2.42,2.377 -4.485,3.507 -5.618,2.835c-1.136,-0.675 -1.124,-3.024 -0.186,-6.286c0.474,-1.632 1.174,-3.49 2.028,-5.45c0.434,-0.979 0.916,-1.993 1.446,-3.028c0.135,-0.26 0.267,-0.519 0.382,-0.772l0.182,-0.384c0.057,-0.121 0.021,-0.061 0.038,-0.102c0.014,-0.061 0.035,-0.118 0.065,-0.176c0.869,-1.692 1.885,-3.411 2.475,-5.048c0.308,-0.832 0.776,-1.646 0.966,-2.483l0.68,-2.505c-0.022,0.068 0.089,-0.273 0.144,-0.519l0.127,-0.808c0.097,-0.533 0.194,-1.057 0.29,-1.572c0.114,-0.516 0.226,-1.021 0.335,-1.52c0.085,-0.529 0.168,-1.048 0.248,-1.56c0.34,-2.04 0.827,-3.868 1.24,-5.511c0.896,-3.22 2.109,-5.245 3.429,-5.245" style="fill:#fff;fill-rule:nonzero;"/><path d="M321.651,418.038c-1.219,-0.522 -1.642,-2.838 -1.465,-6.015c0.024,-1.665 0.205,-3.584 0.547,-5.664c0.152,-1.053 0.314,-2.17 0.531,-3.305c0.114,-0.57 0.231,-1.146 0.349,-1.729c0.113,-0.495 0.226,-0.997 0.342,-1.502c1.307,-5.734 2.505,-11.526 3.528,-17.332c0.015,-0.093 0.04,-0.189 0.073,-0.277c0.012,-0.051 0.005,0.01 0.034,-0.125l0.092,-0.438l0.193,-0.858c0.26,-1.135 0.547,-2.227 0.844,-3.262c0.548,-2.064 1.175,-3.909 1.84,-5.449c1.233,-3.035 2.622,-4.924 3.943,-4.825c1.309,0.095 2.298,2.245 2.75,5.72c0.185,1.705 0.241,3.723 0.154,5.952c-0.064,1.104 -0.172,2.257 -0.312,3.448l-0.113,0.899l-0.063,0.453c-0.019,0.143 -0.003,0.085 -0.008,0.136c-0,0.099 -0.009,0.198 -0.026,0.295c-1.052,5.972 -2.276,11.899 -3.629,17.826c-0.137,0.526 -0.272,1.042 -0.404,1.552c-0.172,0.597 -0.341,1.188 -0.507,1.764c-0.351,1.156 -0.703,2.259 -1.103,3.302c-0.845,2.092 -1.732,3.934 -2.606,5.422c-1.946,3.033 -3.781,4.528 -4.984,4.012" style="fill:#fff;fill-rule:nonzero;"/><path d="M357.245,307.359c1.312,0.117 2.307,2.249 2.854,5.605c0.273,1.677 0.432,3.661 0.465,5.852c0.016,1.094 0,2.241 -0.048,3.427c-0.033,0.59 -0.068,1.195 -0.101,1.804c-0.052,0.543 -0.103,1.088 -0.155,1.646l-1.159,10.422c-0.389,3.475 -0.903,6.965 -1.349,10.444c-0.431,3.479 -1.097,6.979 -1.636,10.467c-0.279,1.743 -0.682,3.493 -1.019,5.24c-0.354,1.75 -0.684,3.5 -1.146,5.236c-0.055,0.229 -0.119,0.453 -0.191,0.67c-0.154,0.522 -0.307,1.038 -0.456,1.543c-0.361,1.163 -0.703,2.288 -1.153,3.32c-0.865,2.069 -1.734,3.906 -2.651,5.357c-1.847,2.9 -3.608,4.455 -4.858,4.039c-1.251,-0.421 -1.76,-2.719 -1.586,-6.059c0.083,-1.676 0.248,-3.601 0.619,-5.693c0.179,-1.045 0.368,-2.137 0.563,-3.269c0.095,-0.485 0.193,-0.978 0.292,-1.479c0.036,-0.214 0.079,-0.428 0.133,-0.641c0.434,-1.62 0.747,-3.288 1.08,-4.946c0.321,-1.665 0.703,-3.304 0.972,-4.988c0.519,-3.382 1.16,-6.715 1.582,-10.132c0.436,-3.411 0.939,-6.802 1.323,-10.234l1.144,-10.296c0.068,-0.545 0.135,-1.085 0.201,-1.616c0.082,-0.601 0.163,-1.194 0.243,-1.778c0.176,-1.165 0.377,-2.284 0.601,-3.349c0.444,-2.126 0.979,-4.033 1.566,-5.621c1.172,-3.175 2.556,-5.087 3.87,-4.971" style="fill:#fff;fill-rule:nonzero;"/><path d="M245.696,356.406c-2.63,0.044 -4.75,-1.316 -4.665,-2.909c0,-0 0.078,-1.068 0.195,-2.672c0.125,-1.556 0.302,-3.573 0.385,-5.507c0.099,-1.94 0.089,-3.808 -0.003,-5.163c-0.054,-0.676 -0.099,-1.238 -0.129,-1.632c-0.017,-0.4 -0.076,-0.603 -0.076,-0.603c-0.205,-1.163 1.729,-2.604 4.293,-3.215c2.568,-0.615 4.893,0.26 5.172,1.956c0,0 0.071,0.303 0.101,0.808c0.041,0.505 0.099,1.231 0.168,2.102c0.118,1.729 0.123,4.004 0.014,6.188c-0.099,2.201 -0.285,4.3 -0.406,5.83c-0.11,1.491 -0.183,2.48 -0.183,2.48c-0.067,1.299 -2.218,2.294 -4.866,2.337" style="fill:#fff;fill-rule:nonzero;"/><path d="M260.887,355.104c-2.637,-0.003 -4.778,-1.024 -4.786,-2.281c-0,-0 -0.03,-3.592 -0.059,-7.182c-0.132,-3.521 -0.264,-7.037 -0.264,-7.037c-0.047,-1.227 2.047,-2.39 4.675,-2.597c2.632,-0.21 4.804,0.686 4.854,2c0,-0 0.141,3.727 0.282,7.457c0.031,3.659 0.06,7.321 0.06,7.321c0.009,1.281 -2.121,2.319 -4.762,2.319" style="fill:#fff;fill-rule:nonzero;"/><path d="M272.606,353.368c-2.552,-0.665 -4.504,-1.686 -4.363,-2.444c0,-0 0.427,-2.202 0.594,-4.405c0.078,-1.095 0.116,-2.17 0.083,-2.951c0.021,-0.806 -0.061,-1.285 -0.061,-1.285c-0.062,-0.665 2.011,-1.533 4.615,-1.936c2.608,-0.403 4.811,0.136 4.906,1.207c0,-0 0.103,0.76 0.087,1.821c0.038,1.089 -0.009,2.5 -0.111,3.885c-0.208,2.768 -0.734,5.457 -0.734,5.457c-0.178,0.957 -2.461,1.316 -5.016,0.651" style="fill:#fff;fill-rule:nonzero;"/><path d="M229.637,355.538c-2.637,0.018 -4.732,-1.028 -4.679,-2.33c0,0 0.04,-0.918 0.099,-2.295c0.052,-1.38 0.332,-3.14 0.521,-4.934c0.229,-1.668 0.458,-3.337 0.63,-4.587c0.118,-1.18 0.198,-1.967 0.198,-1.967c0.111,-1.092 2.335,-1.845 4.967,-1.682c2.636,0.16 4.667,1.326 4.537,2.608c-0,-0 -0.092,0.899 -0.229,2.251c-0.176,1.271 -0.408,2.967 -0.643,4.662c-0.158,1.581 -0.422,3.184 -0.456,4.351c-0.049,1.166 -0.082,1.946 -0.082,1.946c-0.045,1.073 -2.222,1.96 -4.863,1.977" style="fill:#fff;fill-rule:nonzero;"/><path d="M212.276,350.764c-2.594,-0.474 -4.602,-1.391 -4.488,-2.049l1.309,-7.528c0.115,-0.657 2.314,-0.84 4.915,-0.406c2.604,0.431 4.616,1.327 4.5,1.993l-1.326,7.634c-0.117,0.668 -2.313,0.826 -4.91,0.356" style="fill:#fff;fill-rule:nonzero;"/><path d="M113.856,305.357c-0.524,0.505 -1.197,0.99 -2.082,1.407c-1.093,0.512 -2.468,0.845 -3.859,0.828c-1.37,-0.03 -2.689,-0.382 -3.675,-0.854c-2.02,-0.967 -3.181,-2.162 -4.108,-3.202c-1.715,-2.026 -2.688,-3.881 -3.609,-5.717c-0.881,-1.822 -1.589,-3.607 -2.25,-5.385c-1.292,-3.55 -2.304,-7.052 -3.23,-10.556c-0.944,-3.482 -1.592,-7.041 -2.368,-10.569c-0.845,-3.488 -1.29,-7.154 -1.79,-10.79c-0.795,-7.319 -1.475,-14.864 0.709,-23.087c0.672,-2.05 1.295,-4.106 2.411,-6.066c0.485,-1.033 1.075,-1.869 1.646,-2.751c0.156,-0.23 0.259,-0.415 0.462,-0.681l0.667,-0.828c0.46,-0.544 0.887,-1.092 1.477,-1.563c2.146,-2.013 5.116,-3.303 7.844,-3.626c2.743,-0.351 5.253,-0.006 7.524,0.616c0.725,0.2 1.429,0.429 2.114,0.688c-0.654,-2.694 -1.188,-6.138 -1.633,-10.153c-0.627,-4.905 -0.976,-10.808 -1.741,-16.825c-0.167,-1.514 -0.464,-2.911 -0.657,-4.413c-0.073,-0.806 -0.309,-1.304 -0.442,-1.964c-0.167,-0.722 -0.332,-1.453 -0.5,-2.191c-0.346,-1.538 -0.638,-3.159 -0.648,-4.503c-0.111,-1.476 -0.023,-2.741 0.071,-4.033c0.073,-1.328 0.313,-2.425 0.486,-3.662c0.226,-1.151 0.485,-2.269 0.756,-3.39c1.151,-4.367 2.645,-8.15 4.159,-11.634c1.511,-3.46 3.103,-6.647 4.407,-9.345l0.46,-0.96c0.144,-0.306 0.291,-0.636 0.343,-0.669c0.087,-0.057 0.186,-0.128 0.266,-0.22c0.163,-0.183 0.269,-0.433 0.312,-0.729c-0.081,-0.528 -0.56,-1.721 -1.053,-2.735c-0.507,-1.064 -1.091,-2.173 -1.662,-3.278c-2.354,-4.401 -4.262,-8.819 -4.675,-12.14c-0.458,-3.382 0.371,-5.413 1.595,-5.743c1.309,-0.367 2.856,0.668 4.981,2.279c2.162,1.681 4.993,3.898 8.825,7.398c0.951,0.892 1.96,1.875 3.022,3.055c1.082,1.229 2.138,2.45 3.358,4.568c1.29,2.363 2.245,5.134 2.165,8.061c-0.054,0.732 -0.109,1.47 -0.165,2.212c-0.135,0.736 -0.295,1.479 -0.477,2.222c-0.153,0.54 -0.306,1.085 -0.462,1.633l-0.408,1.358c-1.097,3.49 -2.295,6.689 -3.446,9.945c-1.146,3.227 -2.261,6.47 -3.061,9.517c-0.84,2.988 -1.007,5.76 -0.938,6.509c0,0.045 -0.017,0.026 -0.005,0.126l0.073,0.426l0.139,0.849l0.264,1.687c0.141,1.089 0.384,2.297 0.377,3.233c0.06,1.962 0.184,3.946 0.119,5.748c-0.161,7.255 -1.253,13.307 -2.359,18.425c-1.621,6.907 -3.588,11.851 -5.496,14.217c0.159,0.394 0.271,0.797 0.333,1.202c0.297,1.719 -0.373,3.288 -1.63,4.271c-1.285,1.012 -2.742,1.512 -4.011,1.798c-1.251,0.25 -2.437,0.212 -3.411,-0.347c-0.917,-0.536 -1.919,-0.941 -2.86,-1.196c-1.088,-0.306 -2.114,-0.394 -2.849,-0.299c-0.746,0.108 -1.119,0.318 -1.529,0.689c-0.123,0.046 -0.203,0.221 -0.311,0.341c-0.052,0.062 -0.109,0.123 -0.17,0.18c-0.068,0.077 -0.182,0.276 -0.271,0.407c-0.375,0.586 -0.807,1.175 -1.041,1.743c-0.652,1.079 -0.999,2.399 -1.45,3.658c-0.306,1.371 -0.554,2.81 -0.794,4.253l-0.256,4.623c0.01,1.582 0.151,3.214 0.213,4.82l0.123,2.42l0.348,2.465c0.458,3.288 0.836,6.575 1.645,9.887c0.731,3.299 1.323,6.629 2.212,9.896c0.86,3.257 1.797,6.476 2.9,9.497c0.557,1.498 1.144,2.963 1.782,4.29c0.631,1.29 1.365,2.522 1.922,3.159c0.136,0.139 0.257,0.278 0.302,0.306c0.006,0.005 0.014,0.016 0.02,0.023c-0.021,0.024 -0.071,0.089 -0.124,0.161l-0.046,0.067c1.148,-0.04 2.47,0.025 3.749,0.527c0.219,0.085 0.429,0.184 0.63,0.297c-0.043,-1.127 -0.085,-2.253 -0.126,-3.381c0.019,-0.639 0.038,-1.258 0.055,-1.862c0.039,-1.195 0.106,-2.349 0.204,-3.447c0.215,-2.217 0.449,-4.126 0.946,-5.875c0.944,-3.437 2.187,-5.39 3.498,-5.264c1.313,0.127 2.462,2.23 3.255,5.348c0.367,1.533 0.832,3.527 1.097,5.647c0.145,1.071 0.264,2.195 0.353,3.361c0.043,0.584 0.09,1.19 0.137,1.809c0.257,7.082 0.561,14.195 0.971,21.299c0.026,0.531 0.05,1.056 0.074,1.573c0.014,0.608 0.028,1.205 0.042,1.795c0.01,1.175 -0.012,2.313 -0.064,3.398c-0.106,2.173 -0.332,4.139 -0.658,5.8c-0.657,3.323 -1.721,5.432 -3.037,5.528c-1.314,0.095 -2.634,-1.847 -3.701,-5.077c-0.535,-1.614 -1.007,-3.547 -1.386,-5.703c-0.189,-1.078 -0.356,-2.213 -0.493,-3.392c-0.062,-0.592 -0.123,-1.193 -0.185,-1.799c-0.042,-0.522 -0.084,-1.048 -0.125,-1.583c-0.194,-3.351 -0.363,-6.703 -0.516,-10.058Zm-4.55,-9.169c0.011,-0.012 0.014,-0.014 0.005,-0.001c0.005,0.013 0.002,0.009 -0.005,0.001Z" style="fill:#fff;"/><path d="M387.625,104.234c0.549,0.445 -0.852,3.636 -5.165,8.117c-4.257,4.486 -11.812,9.842 -22.226,13.692c-10.387,3.886 -23.42,6.263 -37.781,6.745c-14.378,0.545 -30.094,-0.675 -46.279,-3.243c-8.257,-1.368 -15.528,-2.752 -22.929,-3.519c-7.38,-0.71 -14.554,-1.187 -21.426,-1.377c-13.737,-0.425 -26.191,-0.012 -36.637,0.49c-10.451,0.522 -18.902,1.234 -24.751,1.715c-5.842,0.478 -9.119,0.733 -9.369,-0.05c-0.236,-0.722 2.735,-2.464 8.492,-4.321c5.746,-1.86 14.222,-3.825 24.818,-5.405c10.597,-1.557 23.312,-2.833 37.545,-2.986c7.116,-0.099 14.611,0.163 22.392,0.76c3.892,0.419 7.854,0.757 11.875,1.445c4.118,0.594 7.819,1.323 11.786,1.932c15.681,2.488 30.712,3.955 44.308,4.004c13.595,0.104 25.725,-1.315 35.486,-3.907c9.774,-2.569 17.102,-6.309 21.87,-9.425c4.797,-3.089 7.335,-5.231 7.991,-4.667" style="fill:#fff;fill-rule:nonzero;"/><path d="M144.88,116.085c-0.088,0.777 -0.171,1.516 -0.249,2.204c0.264,-0.032 0.489,0.003 0.66,0.122c0.25,0.175 0.359,0.517 0.323,1.015c-0.011,0.25 -0.084,0.539 -0.214,0.867c-0.13,0.328 -0.297,0.696 -0.785,1.156c-0.142,0.118 -0.298,0.234 -0.467,0.344c-0.284,0.126 -0.661,0.217 -1.017,0.238c-0.396,-0 -0.993,-0.214 -1.309,-0.459c-0.253,-0.198 -0.545,-0.524 -0.689,-0.758c-0.056,-0.096 -0.11,-0.195 -0.163,-0.297c-0.186,0.985 -0.387,1.977 -0.61,2.979l-0.229,0.932c-0.106,0.412 -0.217,0.82 -0.345,1.215c-0.252,0.79 -0.556,1.549 -0.948,2.115c-0.4,0.566 -0.849,0.91 -1.387,1.149c-0.264,0.113 -0.652,0.195 -0.919,0.209l-0.825,-0.28c-1.062,-0.021 -2.298,-1.653 -3.477,-2.757c-0.623,-0.663 -1.245,-1.241 -1.818,-1.925l-0.125,-0.144c-0.831,-0.971 -1.571,-1.938 -2.196,-2.849c-0.63,-0.901 -1.024,-1.913 -1.347,-2.705c-0.615,-1.632 -0.681,-2.759 -0.115,-3.083c0.565,-0.325 1.637,0.175 2.867,1.178c0.642,0.492 1.211,1.158 1.993,1.853c0.769,0.701 1.56,1.508 2.338,2.404l0.117,0.134c0.519,0.623 1.149,1.21 1.689,1.79l0.002,0.003l0.072,-0.309c0.709,-3.171 1.228,-6.557 1.79,-9.909c0.559,-3.365 1.12,-6.749 1.822,-10.151c0.354,-1.702 0.737,-3.408 1.218,-5.131c0.437,-1.48 0.855,-2.945 1.637,-4.519c0.092,0.028 0.089,0.027 0,-0c0.133,-0.268 0.277,-0.539 0.433,-0.814c-0,0 0.199,-0.242 0.243,-0.389c1.019,-3.444 4.908,-3.725 4.394,1.351c-0.003,0.03 -0.004,0.274 -0.004,0.274l-0.012,0.731l-0.06,1.438c-0.056,0.949 -0.125,1.89 -0.212,2.821c-0.049,0.533 -0.101,1.065 -0.157,1.595c0.12,-0.21 0.241,-0.422 0.362,-0.634c2.115,-3.952 5.244,-8.033 9.2,-12c7.924,-7.964 19.425,-15.106 33.269,-19.844c6.901,-2.285 14.297,-4.226 22.235,-5.292c7.916,-1.075 16.333,-1.231 24.821,-0.144c8.489,1.075 16.599,3.3 23.996,6.245c1.987,0.796 3.926,1.636 5.817,2.51c2.436,-0.189 5.356,-0.252 8.682,-0.139c5.191,0.247 11.385,0.778 18.156,2.091c3.403,0.56 6.916,1.475 10.573,2.361c3.618,1.055 7.378,2.1 11.132,3.538c15.152,5.297 27.718,13.694 35.177,21.333c0.472,0.471 0.946,0.91 1.378,1.377c0.408,0.491 0.806,0.97 1.195,1.437c0.765,0.935 1.475,1.823 2.123,2.66c1.349,1.622 2.241,3.255 2.92,4.604c1.368,2.691 1.778,4.353 1.144,4.825c-0.634,0.472 -2.243,-0.269 -4.528,-1.918c-1.139,-0.832 -2.413,-1.917 -4.076,-2.992c-0.788,-0.567 -1.63,-1.175 -2.523,-1.819c-0.435,-0.327 -0.882,-0.665 -1.342,-1.011c-0.487,-0.312 -0.989,-0.631 -1.505,-0.96c-8.048,-5.389 -19.769,-11.823 -33.882,-16.769c-3.479,-1.337 -6.986,-2.387 -10.331,-3.521c-3.401,-0.972 -6.65,-2.05 -9.815,-2.855c-1.664,-0.476 -3.292,-0.918 -4.876,-1.333c9.933,6.324 18.33,12.546 25.739,17.452c8.606,5.83 15.827,9.919 20.979,12.589c5.155,2.63 8.143,4.048 7.931,4.873c-0.174,0.707 -3.589,0.748 -9.507,-0.7c-5.884,-1.473 -14.153,-4.699 -23.573,-9.815c-9.474,-5.025 -20.059,-11.914 -31.983,-18.447c-5.97,-3.244 -12.307,-6.356 -19.05,-8.899c-6.743,-2.526 -13.913,-4.399 -21.387,-5.349c-14.962,-1.981 -29.59,0.403 -42.405,4.123c-12.71,3.768 -23.407,9.49 -31.024,15.775c-3.814,3.137 -6.965,6.352 -9.291,9.507c-0.306,0.387 -0.608,0.765 -0.903,1.138c-0.261,0.395 -0.518,0.782 -0.769,1.162c-0.509,0.764 -1,1.498 -1.469,2.203c-0.83,1.488 -1.589,2.846 -2.273,4.07c-0.564,1.282 -1.097,2.428 -1.59,3.425c-0.262,0.537 -0.462,1.043 -0.646,1.505Z" style="fill:#fff;"/><path d="M378.944,137.22c0.233,0.32 -0.227,1.112 -1.335,2.334c-1.1,1.231 -2.838,2.904 -5.302,4.79c-4.866,3.805 -12.493,8.871 -23.09,12.838c-2.677,0.867 -5.47,1.877 -8.444,2.703c-3.009,0.657 -6.129,1.516 -9.414,2.04c-1.651,0.217 -3.329,0.44 -5.036,0.665c-1.705,0.202 -3.458,0.512 -5.189,0.526c-3.492,0.143 -7.082,0.29 -10.766,0.44c-14.691,0.012 -30.701,-1.485 -47.241,-4.45c-2.066,-0.38 -4.122,-0.757 -6.162,-1.13c-2.036,-0.408 -4.047,-0.891 -6.047,-1.332c-1.998,-0.455 -3.982,-0.906 -5.949,-1.356c-1.96,-0.529 -3.905,-1.055 -5.832,-1.574c-3.842,-0.955 -7.658,-2.336 -11.354,-3.532c-1.658,-0.548 -3.299,-1.09 -4.922,-1.625c-1.667,-0.435 -3.314,-0.866 -4.943,-1.29c-13.22,-2.975 -25.897,-3.231 -36.512,-3.022c-10.646,0.212 -19.371,0.878 -25.472,0.977c-6.106,0.137 -9.562,-0.276 -9.628,-1.057c-0.068,-0.795 3.142,-1.87 9.041,-3.363c5.906,-1.453 14.54,-3.365 25.509,-4.641c5.481,-0.625 11.543,-1.123 18.127,-1.09c6.576,0.021 13.675,0.471 21.112,1.865c1.851,0.406 3.733,0.788 5.627,1.245c1.877,0.553 3.778,1.114 5.698,1.68c3.471,0.995 6.886,2.16 10.629,3.011c1.842,0.465 3.701,0.934 5.574,1.406c1.901,0.408 3.816,0.819 5.747,1.234c1.932,0.405 3.868,0.858 5.835,1.241c1.974,0.356 3.96,0.716 5.956,1.077c15.99,2.868 31.384,4.613 45.33,5.168c3.474,0.019 6.863,0.037 10.157,0.054c1.666,0.078 3.227,-0.128 4.798,-0.22c1.568,-0.11 3.111,-0.216 4.627,-0.32c3.026,-0.281 5.903,-0.871 8.713,-1.241c2.771,-0.542 5.396,-1.247 7.941,-1.799c10.061,-2.698 17.82,-6.383 23.224,-8.916c2.728,-1.24 4.827,-2.289 6.334,-2.893c1.512,-0.597 2.427,-0.762 2.659,-0.443" style="fill:#fff;fill-rule:nonzero;"/><path d="M360.715,176.836c-1.314,0.127 -2.65,0.256 -4.007,0.388c-1.39,0.163 -2.734,0.036 -4.13,0.049c-11.13,-0.157 -20.693,-2.591 -27.335,-5.167c-3.316,-1.271 -5.915,-2.731 -7.59,-3.95c-1.719,-1.371 -2.405,-2.441 -2.077,-3.158c0.329,-0.717 1.624,-1.043 3.485,-1.073c1.989,-0.123 4.677,0.077 8.038,0.294c6.667,0.465 15.812,1.47 25.575,1.595c1.208,-0.014 2.451,0.134 3.592,0.019c1.154,-0.059 2.293,-0.118 3.413,-0.175c1.127,-0.038 2.255,-0.045 3.172,-0.253c0.965,-0.167 1.935,-0.245 2.864,-0.422c3.702,-0.83 6.933,-2.223 9.67,-3.566c1.259,-0.79 2.587,-1.386 3.566,-2.098c0.539,-0.328 1.04,-0.635 1.504,-0.918c0.422,-0.306 0.833,-0.58 1.227,-0.821c0.842,-0.478 1.374,-0.863 1.941,-1.099c0.551,-0.233 1.033,-0.314 1.398,-0.163c0.364,0.151 0.597,0.534 0.672,1.189c0.067,0.637 0.014,1.635 -0.367,2.642c-0.173,0.525 -0.395,1.104 -0.666,1.736c-0.297,0.591 -0.667,1.195 -1.073,1.856c-0.775,1.379 -1.964,2.622 -3.262,4.098c-2.537,2.449 -5.989,4.98 -10.368,6.783c0.198,0.413 0.307,0.862 0.307,1.331l-0,23.722c-0,2.078 -2.136,3.764 -4.776,3.764c-2.637,-0 -4.773,-1.686 -4.773,-3.764l0,-22.839Z" style="fill:#fff;"/><path d="M233.156,293.913l-50.392,-2.25c-25.157,-1.353 -45.139,-22.179 -45.139,-47.672c-0,-26.366 21.377,-47.743 47.743,-47.743l158.844,8.878c8.949,0.816 17.168,4.153 23.948,9.287l7.317,6.884c7.032,8.199 11.28,18.855 11.28,30.506c-0,25.889 -20.986,46.875 -46.875,46.875l-68.531,-3.06l-0.914,26.5l-38.186,-1.968l0.905,-26.237Z" style="fill:#fff;"/><path d="M229.341,300.61c-6.896,-0.257 -13.893,-0.517 -20.981,-0.78c-4.856,-0.196 -9.757,-0.394 -14.695,-0.594c-2.47,-0.101 -4.95,-0.205 -7.437,-0.307l-3.742,-0.157l-4.305,-0.42c-5.721,-0.769 -11.354,-2.408 -16.643,-4.92c-5.295,-2.5 -10.135,-5.983 -14.382,-10.085c-4.237,-4.123 -7.791,-8.892 -10.517,-14.068c-2.675,-5.206 -4.463,-10.81 -5.384,-16.493c-0.175,-1.429 -0.487,-2.843 -0.529,-4.277l-0.195,-4.285c0.131,-2.847 0.155,-5.7 0.695,-8.492c0.337,-2.821 1.153,-5.539 1.892,-8.248l1.459,-3.948c0.456,-1.326 1.168,-2.538 1.746,-3.804c4.939,-10.006 12.971,-18.081 22.28,-23.284c4.701,-2.512 9.647,-4.514 14.767,-5.561c1.257,-0.365 2.562,-0.45 3.839,-0.667c1.289,-0.168 2.534,-0.416 3.885,-0.427c1.325,-0.052 2.646,-0.104 3.965,-0.154c1.268,-0.012 2.281,0.123 3.429,0.177c35.686,2.356 67.806,4.675 94.755,6.831c13.476,1.077 25.658,2.113 36.349,3.092c5.342,0.511 10.314,0.987 14.893,1.424c2.286,0.236 4.474,0.462 6.56,0.677c1.042,0.111 2.059,0.221 3.051,0.328c1.015,0.132 2.08,0.353 3.066,0.525c7.89,1.638 13.35,4.71 16.654,7.138c1.648,1.247 2.821,2.275 3.509,3.098c0.705,0.791 0.984,1.288 0.835,1.484c-0.149,0.196 -0.724,0.092 -1.681,-0.29c-0.928,-0.404 -2.298,-1.003 -4.095,-1.786c-3.547,-1.507 -8.939,-3.483 -16.011,-4.127c-0.887,-0.047 -1.739,-0.139 -2.708,-0.163c-0.998,-0.006 -2.021,-0.009 -3.069,-0.014c-2.096,-0.019 -4.295,-0.038 -6.592,-0.059c-4.594,-0.075 -9.582,-0.156 -14.943,-0.245c-10.717,-0.217 -22.912,-0.543 -36.384,-0.97c-26.942,-0.858 -58.996,-2.124 -94.567,-3.75c-1.082,-0.032 -2.301,-0.15 -3.275,-0.108l-2.778,0.186c-0.914,-0 -1.894,0.236 -2.852,0.376c-0.957,0.19 -1.944,0.236 -2.88,0.549c-3.839,0.84 -7.504,2.437 -11.002,4.351c-6.906,4.01 -12.847,10.123 -16.425,17.599c-0.41,0.949 -0.964,1.838 -1.275,2.833l-1.06,2.934c-0.5,2.021 -1.129,4.024 -1.339,6.123c-0.411,2.066 -0.368,4.198 -0.484,6.313l0.168,3.184c0.018,1.067 0.292,2.106 0.415,3.165c0.705,4.198 2.026,8.323 4.007,12.166c2.033,3.815 4.667,7.337 7.806,10.389c3.144,3.035 6.71,5.636 10.621,7.481c3.898,1.854 8.059,3.078 12.266,3.672l3.163,0.339l3.731,0.177c2.481,0.118 4.955,0.238 7.417,0.356c4.925,0.241 9.81,0.48 14.652,0.718c19.37,1.009 38.054,1.985 55.853,2.912c17.798,1.028 34.712,2.003 50.541,2.916c7.915,0.499 15.559,0.978 22.907,1.438c1.954,0.2 3.338,0.014 4.935,0.01c0.773,0.021 1.563,-0.1 2.346,-0.208c0.785,-0.097 1.566,-0.196 2.342,-0.295c1.535,-0.294 3.04,-0.669 4.535,-1.023c1.435,-0.527 2.916,-0.915 4.295,-1.515c5.562,-2.299 10.376,-5.683 14.22,-9.596c3.856,-3.916 6.738,-8.35 8.738,-12.821c2.056,-4.465 3.057,-9.012 3.511,-13.241c0.55,-4.243 0.262,-8.198 -0.223,-11.707c-1.074,-7.043 -3.396,-12.278 -5.113,-15.727c-0.812,-1.775 -1.59,-3.045 -2.015,-3.99c-0.431,-0.939 -0.568,-1.507 -0.38,-1.668c0.187,-0.162 0.694,0.09 1.522,0.751c0.82,0.669 2.018,1.704 3.287,3.323c2.621,3.143 6.045,8.407 8.154,16.164c0.997,3.862 1.766,8.329 1.583,13.255c-0.086,4.909 -0.843,10.335 -2.887,15.798c-1.984,5.469 -5.088,11.019 -9.479,16.04c-4.378,5.016 -10.052,9.493 -16.828,12.683c-1.679,0.823 -3.484,1.418 -5.266,2.137c-1.836,0.545 -3.706,1.099 -5.619,1.543c-0.967,0.167 -1.943,0.337 -2.922,0.507c-0.979,0.17 -1.96,0.354 -2.999,0.391c-2.005,0.121 -4.262,0.363 -5.987,0.238c-7.368,-0.197 -15.033,-0.401 -22.973,-0.613c-13.014,-0.412 -26.76,-0.845 -41.126,-1.3c0.329,1.913 0.513,4.233 0.508,6.762c-0.012,0.633 -0.026,1.286 -0.04,1.946l-0.199,5.767l-0.132,3.835l-0.099,2.882l-0.051,1.445l-0.024,0.718c-0.035,0.089 0.063,0.32 -0.082,0.285l-0.361,-0.015l-22.809,-1.039l-14.557,-0.661l-4.377,-0.196l-2.427,-0.113l-0.606,-0.026c-0.045,-0.007 -0.113,0.007 -0.139,-0.021l0.006,-0.149l0.01,-0.306l0.042,-1.213l0.533,-15.49l0.207,-6.015Zm7.157,0.266l-0.555,16.088l31.041,1.411l0.266,-7.7c0.031,-0.659 0.062,-1.31 0.094,-1.944c0.168,-2.516 0.511,-4.812 0.969,-6.695c-1.308,-0.041 -2.62,-0.083 -3.938,-0.125c-9.072,-0.337 -18.373,-0.682 -27.877,-1.035Z"/><path d="M243.657,240.07c-0.648,-0.058 -1.242,-1.066 -1.66,-2.5c-0.285,-0.721 -0.578,-1.558 -0.835,-2.478c-0.367,-0.906 -0.629,-1.915 -1.051,-2.948l-0.067,-0.194l-0.13,-0.372c-0.028,-0.072 -0.027,-0.098 -0.08,-0.21l-0.176,-0.354l-0.699,-1.415l-0.351,-0.708l-0.174,-0.354l-0.277,-0.427l-1.12,-1.719l-1.511,-2.297c-0.123,-0.137 -0.007,-0.109 0.087,-0.101l0.262,0.014l0.568,0.032l1.162,0.064l4.647,0.258l5.71,0.318l9.295,0.516l18.591,1.033l11.72,0.651l2.325,0.13l1.161,0.064l0.292,0.016c0.076,-0.011 0.055,0.024 0.015,0.069l-0.085,0.115l-0.336,0.462l-2.702,3.691l-1.378,1.958l-0.346,0.497l-0.14,0.225l-0.278,0.448c-0.406,0.582 -0.623,1.25 -0.952,1.87c-2.35,5.083 -2.39,11.003 -0.706,16.507c0.12,0.465 0.3,0.91 0.43,1.354c1.221,3.974 2.245,7.245 1.195,7.934c-0.969,0.668 -3.926,-1.842 -5.663,-6.359c-0.177,-0.504 -0.389,-1.009 -0.532,-1.549c-0.954,-3.182 -1.479,-6.545 -1.368,-9.944c0.105,-3.396 0.884,-6.804 2.295,-9.912c0.389,-0.755 0.683,-1.571 1.158,-2.274l0.334,-0.542l0.165,-0.269l-0,0.007l-6.868,-0.382l-31.471,-1.748l0.064,0.144l0.087,0.193l0.021,0.048l0.073,0.2l0.161,0.453l0.082,0.236c0.493,1.264 0.686,2.564 0.851,3.719c0.06,1.184 0.024,2.252 -0.113,3.13c-0.431,1.781 -1.033,2.757 -1.682,2.7" style="fill-rule:nonzero;"/><path d="M168.239,210.564c0.36,0.575 -0.795,2.098 -2.882,4.393c-1.932,2.475 -4.753,5.887 -7,10.701c-2.255,4.776 -3.734,10.969 -3.248,17.748c0.378,6.757 3.076,13.962 8.047,19.882c4.969,5.98 11.766,9.608 18.29,11.243c6.607,1.459 12.981,1.112 18.043,-0.361c5.082,-1.432 9.056,-3.489 11.689,-5.146c0.349,-0.19 0.679,-0.368 0.988,-0.536c0.294,-0.189 0.57,-0.366 0.827,-0.531c0.524,-0.323 0.991,-0.582 1.394,-0.775c0.807,-0.378 1.361,-0.487 1.609,-0.269c0.247,0.219 0.176,0.752 -0.21,1.592c-0.193,0.421 -0.463,0.915 -0.812,1.485c-0.181,0.284 -0.375,0.587 -0.582,0.909c-0.243,0.294 -0.503,0.605 -0.776,0.933c-0.561,0.651 -1.203,1.366 -1.929,2.142c-0.783,0.696 -1.66,1.439 -2.618,2.233c-1.965,1.505 -4.389,3.024 -7.288,4.314c-5.761,2.646 -13.58,3.979 -22.07,2.635c-8.402,-1.498 -17.418,-5.977 -23.836,-13.689c-6.45,-7.632 -9.629,-17.206 -9.559,-25.758c-0.07,-8.589 2.633,-16.108 6.154,-21.356c3.528,-5.311 7.618,-8.457 10.516,-10.257c3.071,-1.618 4.922,-2.073 5.253,-1.532" style="fill-rule:nonzero;"/><path d="M199.508,271.635c-0.222,-0.618 0.488,-1.522 1.699,-2.514c1.183,-1.069 2.896,-2.21 4.698,-3.606l0.214,-0.149c-0,-0.002 0.29,-0.198 0.786,-0.625c0.509,-0.41 1.257,-1.014 2.118,-1.882c1.721,-1.708 4.073,-4.38 5.856,-8.18c1.79,-3.757 3.094,-8.625 2.749,-13.874c-0.191,-5.231 -2.042,-10.725 -5.289,-15.265c-3.222,-4.571 -7.842,-8.075 -12.684,-10.031c-4.866,-1.919 -9.864,-2.443 -14.024,-1.928c-4.18,0.473 -7.439,1.834 -9.654,2.83c-1.061,0.606 -1.893,1.082 -2.461,1.407c-0.583,0.302 -0.822,0.572 -0.835,0.552c-0.482,0.347 -0.96,0.687 -1.423,1.02c-3.342,2.389 -6.052,4.443 -7.089,3.684c-0.942,-0.652 0.427,-4.328 4.198,-7.437c0.533,-0.398 1.08,-0.806 1.636,-1.219c0.012,0.019 0.3,-0.283 0.972,-0.642c0.663,-0.379 1.634,-0.932 2.87,-1.637c2.578,-1.177 6.39,-2.755 11.262,-3.302c4.835,-0.594 10.658,-0.002 16.34,2.246c5.653,2.281 11.024,6.363 14.78,11.686c3.786,5.286 5.941,11.712 6.168,17.799c0.392,6.097 -1.115,11.789 -3.208,16.171c-2.085,4.429 -4.816,7.542 -6.823,9.532c-1.004,1.008 -1.874,1.711 -2.467,2.191c-0.58,0.494 -0.915,0.724 -0.915,0.725l-0.25,0.174c-2.123,1.606 -4.429,2.444 -6.122,2.8c-1.739,0.282 -2.887,0.082 -3.102,-0.526" style="fill:#ff171d;fill-rule:nonzero;"/><path d="M211.41,242.255c-0,12.936 -10.502,23.438 -23.438,23.438c-12.935,-0 -23.437,-10.502 -23.437,-23.438c-0,-12.935 10.502,-23.437 23.437,-23.437c12.936,-0 23.438,10.502 23.438,23.437Zm-6.945,0c0,-9.103 -7.39,-16.493 -16.493,-16.493c-9.103,0 -16.493,7.39 -16.493,16.493c0,9.103 7.39,16.493 16.493,16.493c9.103,0 16.493,-7.39 16.493,-16.493Z" style="fill:#ff171d;"/><path d="M333.226,214.369c0.066,0.323 -0.332,0.755 -1.118,1.271c-0.393,0.258 -0.882,0.538 -1.46,0.837c-0.566,0.326 -1.216,0.701 -1.941,1.119c-2.862,1.669 -6.943,4.11 -10.796,8.256c-3.88,4.059 -7.472,9.864 -9.046,16.909c-1.605,7.007 -0.928,15.294 2.762,22.643c3.653,7.39 9.859,12.868 16.37,15.895c3.286,1.49 6.638,2.356 9.852,2.855c3.229,0.46 6.299,0.392 9.108,0.163c5.604,-0.648 10.033,-2.349 13.083,-3.653c0.774,-0.328 1.463,-0.618 2.066,-0.871c0.588,-0.282 1.108,-0.502 1.55,-0.66c0.887,-0.313 1.472,-0.368 1.689,-0.122c0.217,0.249 0.058,0.788 -0.473,1.615c-0.266,0.411 -0.625,0.896 -1.075,1.446c-0.462,0.535 -1.059,1.078 -1.731,1.705c-2.707,2.437 -7.319,5.465 -13.884,7.179c-3.283,0.757 -6.995,1.269 -11.014,1.087c-4.003,-0.223 -8.309,-0.988 -12.583,-2.632c-8.486,-3.316 -16.778,-10.171 -21.507,-19.754c-2.375,-4.759 -3.729,-9.87 -4.139,-14.847c-0.413,-4.983 0.15,-9.833 1.401,-14.226c2.53,-8.83 7.752,-15.573 13.025,-19.724c5.27,-4.255 10.519,-6.047 14.078,-6.758c0.908,-0.157 1.705,-0.297 2.408,-0.349c0.71,-0.026 1.312,-0.019 1.802,0.019c0.979,0.074 1.507,0.274 1.573,0.597" style="fill-rule:nonzero;"/><path d="M350.444,280.919c-0.18,-0.626 0.579,-1.501 1.856,-2.399c1.247,-0.995 3.021,-2.036 4.907,-3.318l0.182,-0.114c-0,-0 0.243,-0.157 0.7,-0.448c0.43,-0.33 1.064,-0.811 1.868,-1.422c1.545,-1.299 3.659,-3.316 5.605,-6.195c1.974,-2.849 3.636,-6.621 4.436,-10.883c0.787,-4.261 0.551,-9.005 -0.725,-13.439c-1.29,-4.447 -3.789,-8.481 -6.754,-11.631c-2.969,-3.175 -6.465,-5.382 -9.653,-6.724c-3.21,-1.342 -6.085,-1.814 -8.083,-2.092c-2.019,-0.114 -3.174,-0.18 -3.174,-0.18c-0.494,0.012 -0.979,0.026 -1.453,0.038c-4.123,-0.012 -7.503,0.215 -7.92,-0.995c-0.411,-1.078 2.8,-3.403 7.684,-3.738c0.55,-0.026 1.115,-0.052 1.688,-0.08c-0,-0.001 1.347,0.035 3.694,0.211c2.328,0.312 5.684,0.871 9.425,2.441c3.721,1.565 7.792,4.137 11.252,7.829c3.457,3.662 6.361,8.372 7.868,13.559c1.498,5.181 1.764,10.686 0.849,15.655c-0.929,4.974 -2.878,9.375 -5.175,12.696c-2.264,3.356 -4.726,5.701 -6.526,7.214c-0.939,0.713 -1.677,1.272 -2.179,1.652c-0.531,0.342 -0.814,0.525 -0.814,0.525l-0.214,0.137c-2.219,1.467 -4.566,2.172 -6.278,2.423c-1.76,0.158 -2.887,-0.098 -3.066,-0.722" style="fill:#ff171d;fill-rule:nonzero;"/><path d="M364.187,250.936c0,12.935 -10.501,23.437 -23.437,23.437c-12.936,0 -23.438,-10.502 -23.438,-23.437c0,-12.936 10.502,-23.438 23.438,-23.438c12.936,0 23.437,10.502 23.437,23.438Zm-6.944,-0c0,-9.103 -7.39,-16.493 -16.493,-16.493c-9.103,-0 -16.493,7.39 -16.493,16.493c-0,9.103 7.39,16.493 16.493,16.493c9.103,-0 16.493,-7.39 16.493,-16.493Z" style="fill:#ff171d;"/></g></svg>