<?xml version="1.0" encoding="UTF-8" standalone="no"?><!DOCTYPE svg PUBLIC "-//W3C//DTD SVG 1.1//EN" "http://www.w3.org/Graphics/SVG/1.1/DTD/svg11.dtd"><svg width="100%" height="100%" viewBox="0 0 402 416" version="1.1" xmlns="http://www.w3.org/2000/svg" xmlns:xlink="http://www.w3.org/1999/xlink" xml:space="preserve" xmlns:serif="http://www.serif.com/" style="fill-rule:evenodd;clip-rule:evenodd;stroke-linecap:round;stroke-linejoin:round;stroke-miterlimit:1.5;"><rect id="Artboard1" x="0" y="0" width="401.452" height="415.901" style="fill:none;"/><path d="M386.017,110.27l0,253.328c0,20.52 -16.659,37.179 -37.179,37.179l-253.327,-0c-20.52,-0 -37.179,-16.659 -37.179,-37.179l-0,-253.328c-0,-20.519 16.659,-37.179 37.179,-37.179l253.327,0c20.52,0 37.179,16.66 37.179,37.179Z" style="fill:#ebebeb;"/><clipPath id="_clip1"><path d="M386.017,110.27l0,253.328c0,20.52 -16.659,37.179 -37.179,37.179l-253.327,-0c-20.52,-0 -37.179,-16.659 -37.179,-37.179l-0,-253.328c-0,-20.519 16.659,-37.179 37.179,-37.179l253.327,0c20.52,0 37.179,16.66 37.179,37.179Z"/></clipPath><g clip-path="url(#_clip1)"><rect x="58.332" y="73.091" width="109.119" height="109.119" style="fill:#8a88ff;stroke:#000;stroke-width:5.5px;"/><rect x="58.332" y="182.211" width="109.119" height="109.119" style="fill:#8a88ff;stroke:#000;stroke-width:5.5px;"/><rect x="58.332" y="291.33" width="109.119" height="109.119" style="fill:#8a88ff;stroke:#000;stroke-width:5.5px;"/><rect x="167.615" y="73.091" width="109.119" height="109.119" style="fill:#8a88ff;stroke:#000;stroke-width:5.5px;"/><rect x="167.615" y="182.211" width="109.119" height="109.119" style="fill:#8a88ff;stroke:#000;stroke-width:5.5px;"/><rect x="167.615" y="291.33" width="109.119" height="109.119" style="fill:#8a88ff;stroke:#000;stroke-width:5.5px;"/><rect x="276.898" y="73.091" width="109.119" height="109.119" style="fill:#8a88ff;stroke:#000;stroke-width:5.5px;"/><rect x="276.898" y="182.211" width="109.119" height="109.119" style="fill:#8a88ff;stroke:#000;stroke-width:5.5px;"/><rect x="276.898" y="291.33" width="109.119" height="109.119" style="fill:#8a88ff;stroke:#000;stroke-width:5.5px;"/><g transform="matrix(106.042,0,0,106.042,146.34,165.76)"></g><text x="87.365px" y="165.76px" style="font-family:'Arial-BoldMT', 'Arial', sans-serif;font-weight:700;font-size:106.042px;">1</text><g transform="matrix(106.042,0,0,106.042,146.34,274.879)"></g><text x="87.365px" y="274.879px" style="font-family:'Arial-BoldMT', 'Arial', sans-serif;font-weight:700;font-size:106.042px;">4</text><g transform="matrix(106.042,0,0,106.042,146.34,383.998)"></g><text x="87.365px" y="383.998px" style="font-family:'Arial-BoldMT', 'Arial', sans-serif;font-weight:700;font-size:106.042px;">7</text><g transform="matrix(106.042,0,0,106.042,255.623,165.76)"></g><text x="196.648px" y="165.76px" style="font-family:'Arial-BoldMT', 'Arial', sans-serif;font-weight:700;font-size:106.042px;">2</text><g transform="matrix(106.042,0,0,106.042,255.623,274.879)"></g><text x="196.648px" y="274.879px" style="font-family:'Arial-BoldMT', 'Arial', sans-serif;font-weight:700;font-size:106.042px;">5</text><g transform="matrix(106.042,0,0,106.042,255.623,383.998)"></g><text x="196.648px" y="383.998px" style="font-family:'Arial-BoldMT', 'Arial', sans-serif;font-weight:700;font-size:106.042px;">8</text><g transform="matrix(106.042,0,0,106.042,364.906,165.76)"></g><text x="305.931px" y="165.76px" style="font-family:'Arial-BoldMT', 'Arial', sans-serif;font-weight:700;font-size:106.042px;">3</text><g transform="matrix(106.042,0,0,106.042,364.906,274.879)"></g><text x="305.931px" y="274.879px" style="font-family:'Arial-BoldMT', 'Arial', sans-serif;font-weight:700;font-size:106.042px;">6</text><g transform="matrix(106.042,0,0,106.042,364.906,383.998)"></g><text x="305.931px" y="383.998px" style="font-family:'Arial-BoldMT', 'Arial', sans-serif;font-weight:700;font-size:106.042px;">9</text></g><path d="M386.017,110.27l0,253.328c0,20.52 -16.659,37.179 -37.179,37.179l-253.327,-0c-20.52,-0 -37.179,-16.659 -37.179,-37.179l-0,-253.328c-0,-20.519 16.659,-37.179 37.179,-37.179l253.327,0c20.52,0 37.179,16.66 37.179,37.179Z" style="fill:none;stroke:#000;stroke-width:14px;"/><g transform="matrix(50.0131,0,0,50.0131,131.624,48.0064)"></g><text x="103.809px" y="48.006px" style="font-family:'ArialMT', 'Arial', sans-serif;font-size:50.013px;">0</text><g transform="matrix(50.0131,0,0,50.0131,34.7544,151.65)"></g><text x="6.94px" y="151.65px" style="font-family:'ArialMT', 'Arial', sans-serif;font-size:50.013px;">0</text><g transform="matrix(50.0131,0,0,50.0131,242.074,48.0064)"></g><text x="214.259px" y="48.006px" style="font-family:'ArialMT', 'Arial', sans-serif;font-size:50.013px;">1</text><g transform="matrix(50.0131,0,0,50.0131,32.8704,252.21)"></g><text x="5.055px" y="252.21px" style="font-family:'ArialMT', 'Arial', sans-serif;font-size:50.013px;">1</text><g transform="matrix(50.0131,0,0,50.0131,346.188,48.0064)"></g><text x="318.373px" y="48.006px" style="font-family:'ArialMT', 'Arial', sans-serif;font-size:50.013px;">2</text><g transform="matrix(50.0131,0,0,50.0131,34.2418,358.152)"></g><text x="6.427px" y="358.152px" style="font-family:'ArialMT', 'Arial', sans-serif;font-size:50.013px;">2</text></svg>